<?xml version="1.0" encoding="UTF-8"?>
<svg xmlns="http://www.w3.org/2000/svg" viewBox="0 0 256 256" width="256" height="256">
  <title>PIN Verifier Logo</title>
  <defs>
    <linearGradient id="gradient" x1="0" y1="0" x2="1" y2="1">
      <stop offset="0%" stop-color="#2563eb" />
      <stop offset="100%" stop-color="#8b5cf6" />
    </linearGradient>
    <filter id="shadow" x="-20%" y="-20%" width="140%" height="140%">
      <feDropShadow dx="0" dy="8" stdDeviation="12" flood-color="#000" flood-opacity="0.2"/>
    </filter>
  </defs>
  <rect width="256" height="256" rx="48" fill="#0f172a"/>
  <g filter="url(#shadow)">
    <path d="M128 42c39.764 0 72 26.976 72 60v48c0 33.024-32.236 60-72 60s-72-26.976-72-60v-48c0-33.024 32.236-60 72-60z" fill="url(#gradient)"/>
    <path d="M100 116h56c6.627 0 12 5.373 12 12v28c0 6.627-5.373 12-12 12H100c-6.627 0-12-5.373-12-12v-28c0-6.627 5.373-12 12-12z" fill="#ffffff" opacity="0.9"/>
    <path d="M118 116v-20c0-5.523 4.477-10 10-10s10 4.477 10 10v20" fill="none" stroke="#0f172a" stroke-width="12" stroke-linecap="round"/>
    <circle cx="128" cy="148" r="6" fill="#0f172a"/>
  </g>
</svg>
